<svg height="526" width="720" xmlns="http://www.w3.org/2000/svg">
<rect height="526" fill="#555" width="720"></rect>
<text fill="#7f7" font-family="Courier New" font-size="12" xml:space="preserve">
<tspan x="10" y="26"></tspan>

<tspan x="10" y="42">[MODE_BUILD=buildApp] - 2018-05-05T13:01:43.651Z - npm-testing /home/travis/build/kaizhu256/node\</tspan>
<tspan x="10" y="58">-swgg-github-all</tspan>

<tspan x="10" y="74"></tspan>

<tspan x="10" y="90"></tspan>

<tspan x="10" y="106">buildApp - merged test-report from file /home/travis/build/kaizhu256/node-swgg-github-all/tmp/bu\</tspan>
<tspan x="10" y="122">ild/test-report.json</tspan>

<tspan x="10" y="138">override assets assets.swgg.swagger.json</tspan>

<tspan x="10" y="154">&gt; server listening on http-port 58612</tspan>

<tspan x="10" y="170">&gt; server listening on http-port 40965</tspan>

<tspan x="10" y="186">[node test-case 1 of 1 passed] - testCase_buildApp_default</tspan>

<tspan x="10" y="202"></tspan>

<tspan x="10" y="218">buildApp - merged test-report from file /home/travis/build/kaizhu256/node-swgg-github-all/tmp/bu\</tspan>
<tspan x="10" y="234">ild/test-report.json</tspan>

<tspan x="10" y="250"></tspan>

<tspan x="10" y="266">-------------------------------------------------------</tspan>

<tspan x="10" y="282">| test-report - buildApidoc - node - linux v10.0.0 - 2018-05-05T13:00:43.112Z</tspan>

<tspan x="10" y="298">|   68052 ms            0 failed        1 passed      |</tspan>

<tspan x="10" y="314">-------------------------------------------------------</tspan>

<tspan x="10" y="330">| test-report - npmTest - node - linux v10.0.0 - 2018-05-05T13:00:11.612Z</tspan>

<tspan x="10" y="346">|   27886 ms            0 failed        8 passed      |</tspan>

<tspan x="10" y="362">-------------------------------------------------------</tspan>

<tspan x="10" y="378"></tspan>

<tspan x="10" y="394">created test-report file /home/travis/build/kaizhu256/node-swgg-github-all/tmp/build/test-report\</tspan>
<tspan x="10" y="410">.html</tspan>

<tspan x="10" y="426"></tspan>

<tspan x="10" y="442"></tspan>

<tspan x="10" y="458">buildApp - 0 failed tests</tspan>

<tspan x="10" y="474"></tspan>

<tspan x="10" y="490"></tspan>

<tspan x="10" y="506">[MODE_BUILD=buildApp] - 2018-05-05T13:01:53.346Z - EXIT_CODE - 0</tspan>

</text>
</svg>
