<svg height="1614" width="720" xmlns="http://www.w3.org/2000/svg">
<rect height="1614" fill="#555" width="720"></rect>
<text fill="#7f7" font-family="Courier New" font-size="12" xml:space="preserve">
<tspan x="10" y="26">2018-05-06 02:22:59 +0800</tspan>

<tspan x="10" y="42">shNpmRunApidocRawFetchAndCreate</tspan>

<tspan x="10" y="58"></tspan>

<tspan x="10" y="74">2018-05-05 20:57:54 +0800</tspan>

<tspan x="10" y="90">ajaxCrawl</tspan>

<tspan x="10" y="106"></tspan>

<tspan x="10" y="122">2018-04-22 16:23:29 +0800</tspan>

<tspan x="10" y="138">update.build</tspan>

<tspan x="10" y="154"></tspan>

<tspan x="10" y="170">2018-04-22 08:16:20 +0000</tspan>

<tspan x="10" y="186">[ci skip] [build app] npm_package_swggAll=github-all</tspan>

<tspan x="10" y="202"></tspan>

<tspan x="10" y="218">2018-04-22 16:13:55 +0800</tspan>

<tspan x="10" y="234">[build app] npm_package_swggAll=github-all</tspan>

<tspan x="10" y="250">2018-04-22 00:38:00 +0000</tspan>

<tspan x="10" y="266">[ci skip] [build appSwgg] npm_package_swggAll=github-all</tspan>

<tspan x="10" y="282"></tspan>

<tspan x="10" y="298">2018-04-22 08:36:07 +0800</tspan>

<tspan x="10" y="314">[build appSwgg] npm_package_swggAll=github-all</tspan>

<tspan x="10" y="330">2018-04-21 21:43:35 +0800</tspan>

<tspan x="10" y="346">fix shell-function shNpmScriptApidocRawCreate</tspan>

<tspan x="10" y="362"></tspan>

<tspan x="10" y="378">2018-04-13 20:26:06 +0800</tspan>

<tspan x="10" y="394">update.build</tspan>

<tspan x="10" y="410"></tspan>

<tspan x="10" y="426">2018-04-11 23:46:46 +0800</tspan>

<tspan x="10" y="442">update.build</tspan>

<tspan x="10" y="458"></tspan>

<tspan x="10" y="474">2018-04-11 23:18:33 +0800</tspan>

<tspan x="10" y="490">update.build</tspan>

<tspan x="10" y="506"></tspan>

<tspan x="10" y="522">2018-04-11 23:14:50 +0800</tspan>

<tspan x="10" y="538">slushy</tspan>

<tspan x="10" y="554"></tspan>

<tspan x="10" y="570">2018-04-11 10:03:30 +0800</tspan>

<tspan x="10" y="586">update.build</tspan>

<tspan x="10" y="602"></tspan>

<tspan x="10" y="618">2018-04-11 09:18:05 +0800</tspan>

<tspan x="10" y="634">update.build</tspan>

<tspan x="10" y="650"></tspan>

<tspan x="10" y="666">2018-04-04 20:50:12 +0800</tspan>

<tspan x="10" y="682">update.build</tspan>

<tspan x="10" y="698"></tspan>

<tspan x="10" y="714">2018-03-31 13:58:18 +0000</tspan>

<tspan x="10" y="730">[ci skip] [build appSwgg]</tspan>

<tspan x="10" y="746"></tspan>

<tspan x="10" y="762">2018-03-31 21:44:24 +0800</tspan>

<tspan x="10" y="778">[build appSwgg]</tspan>

<tspan x="10" y="794">2018-03-29 21:45:27 +0900</tspan>

<tspan x="10" y="810">update.build</tspan>

<tspan x="10" y="826"></tspan>

<tspan x="10" y="842">2018-03-29 15:33:32 +0900</tspan>

<tspan x="10" y="858">add.subtag.collaborators</tspan>

<tspan x="10" y="874"></tspan>

<tspan x="10" y="890">2018-03-29 15:17:12 +0900</tspan>

<tspan x="10" y="906">update.build</tspan>

<tspan x="10" y="922"></tspan>

<tspan x="10" y="938">2018-03-27 00:34:16 +0900</tspan>

<tspan x="10" y="954">[build clean]</tspan>

<tspan x="10" y="970"></tspan>

<tspan x="10" y="986">2018-03-26 23:45:27 +0900</tspan>

<tspan x="10" y="1002">[npm publish] - npm publish v2018.3.25</tspan>

<tspan x="10" y="1018">- update shell-function shNpmScriptApidocRawFetch to use local.ajax instead of wget</tspan>

<tspan x="10" y="1034">- fix whitespace bugs in markdown description</tspan>

<tspan x="10" y="1050">- enable required-flag for preview headers</tspan>

<tspan x="10" y="1066">- fix ascii-diagrams in descriptions</tspan>

<tspan x="10" y="1082"></tspan>

<tspan x="10" y="1098">2018-02-13 09:18:57 +0700</tspan>

<tspan x="10" y="1114">[npm publish] - npm publish v2018.2.12</tspan>

<tspan x="10" y="1130">- update file .apidoc.raw.html and added github-teams webapi</tspan>

<tspan x="10" y="1146">- programmatically create general enum</tspan>

<tspan x="10" y="1162">- programmatically enum custom media types</tspan>

<tspan x="10" y="1178">- revamp build-process with function swaggerJsonFromAjax</tspan>

<tspan x="10" y="1194"></tspan>

<tspan x="10" y="1210">2018-02-02 12:24:25 +0700</tspan>

<tspan x="10" y="1226">[npm publish] - npm publish 2018.2.2</tspan>

<tspan x="10" y="1242">- fix npm test for published packaged</tspan>

<tspan x="10" y="1258"></tspan>

<tspan x="10" y="1274">2018-02-02 11:34:29 +0700</tspan>

<tspan x="10" y="1290">[npm publish] - npm publish 2018.2.1</tspan>

<tspan x="10" y="1306">- documented all github v3 api's as of 2018.1.31</tspan>

<tspan x="10" y="1322">- directly access github-api through cors instead of proxy</tspan>

<tspan x="10" y="1338">- procedurally generate assets.swgg.swagger.json in function testCase_buildReadme_default</tspan>

<tspan x="10" y="1354">- add swaggerJson property x-swgg-descriptionLineList</tspan>

<tspan x="10" y="1370">- add file .apidoc.raw.html</tspan>

<tspan x="10" y="1386">- add github-migrations-migrations web-apis</tspan>

<tspan x="10" y="1402">- add github-migrations-source-imports web-apis</tspan>

<tspan x="10" y="1418">- enable heroku-demo</tspan>

<tspan x="10" y="1434">- ignore env var $npm_package_swggAll and $npm_package_swggTags0 if package-name has -all sufix</tspan>

<tspan x="10" y="1450"></tspan>

<tspan x="10" y="1466">2018-01-20 13:40:08 +0700</tspan>

<tspan x="10" y="1482">[npm publish] - npm publish 2018.1.19</tspan>

<tspan x="10" y="1498">- add github-activity-events web-apis</tspan>

<tspan x="10" y="1514">- add github-gists web-apis</tspan>

<tspan x="10" y="1530">- add github-gists-comments web-apis</tspan>

<tspan x="10" y="1546">- add github-repositories-contents web-apis</tspan>

<tspan x="10" y="1562"></tspan>

<tspan x="10" y="1578">2014-03-26 02:31:50 +0700</tspan>

<tspan x="10" y="1594">add blank README.md</tspan>

</text>
</svg>
