<svg height="782" width="720" xmlns="http://www.w3.org/2000/svg">
<rect height="782" fill="#555" width="720"></rect>
<text fill="#7f7" font-family="Courier New" font-size="12" xml:space="preserve">
<tspan x="10" y="26"></tspan>

<tspan x="10" y="42">&gt; swgg-github-all@2018.3.26-alpha postinstall /tmp/app/node_modules/swgg-github-all</tspan>

<tspan x="10" y="58">&gt; [ ! -f npm_scripts.sh ] || ./npm_scripts.sh shNpmScriptPostinstall</tspan>

<tspan x="10" y="74"></tspan>

<tspan x="10" y="90">/tmp/app</tspan>

<tspan x="10" y="106">└── swgg-github-all@2018.3.26-alpha  (git://github.com/kaizhu256/node-swgg-github-all.git#ee2a68\</tspan>
<tspan x="10" y="122">b8fbf01e0ffd8766dc4f7e7250ce47eecc)</tspan>

<tspan x="10" y="138"></tspan>

<tspan x="10" y="154">npm WARN enoent ENOENT: no such file or directory, open '/tmp/app/package.json'</tspan>

<tspan x="10" y="170">npm WARN app No description</tspan>

<tspan x="10" y="186">npm WARN app No repository field.</tspan>

<tspan x="10" y="202">npm WARN app No README data</tspan>

<tspan x="10" y="218">npm WARN app No license field.</tspan>

<tspan x="10" y="234">{ Error: error.semanticOperations3 - Operation parameters swaggerJson["paths"]["/user/installati\</tspan>
<tspan x="10" y="250">ons"]["get"]["parameters"] = [{"default":"xxxxxxxx","description":"https://developer.github.com/\</tspan>
<tspan x="10" y="266">v3/#authentication\n\nOAuth2 t... must have unique 'name' + 'in' properties</tspan>

<tspan x="10" y="282">    at Object.local.throwSwaggerError (/tmp/app/node_modules/swgg-github-all/assets.utility2.rol\</tspan>
<tspan x="10" y="298">lup.js:27220:21)</tspan>

<tspan x="10" y="314">    at /tmp/app/node_modules/swgg-github-all/assets.utility2.rollup.js:26443:31</tspan>

<tspan x="10" y="330">    at Array.forEach (native)</tspan>

<tspan x="10" y="346">    at /tmp/app/node_modules/swgg-github-all/assets.utility2.rollup.js:26432:50</tspan>

<tspan x="10" y="362">    at Array.forEach (native)</tspan>

<tspan x="10" y="378">    at /tmp/app/node_modules/swgg-github-all/assets.utility2.rollup.js:26409:54</tspan>

<tspan x="10" y="394">    at Array.forEach (native)</tspan>

<tspan x="10" y="410">    at Object.local.swaggerValidate (/tmp/app/node_modules/swgg-github-all/assets.utility2.rollu\</tspan>
<tspan x="10" y="426">p.js:26408:44)</tspan>

<tspan x="10" y="442">    at /tmp/app/node_modules/swgg-github-all/assets.utility2.rollup.js:24906:23</tspan>

<tspan x="10" y="458">    at Object.local.tryCatchOnError (/tmp/app/node_modules/swgg-github-all/assets.utility2.rollu\</tspan>
<tspan x="10" y="474">p.js:22071:26)</tspan>

<tspan x="10" y="490">  messageShort: 'Operation parameters /user/installations["get"]["parameters"] must have unique \</tspan>
<tspan x="10" y="506">\'name\' + \'in\' properties',</tspan>

<tspan x="10" y="522">  options: </tspan>

<tspan x="10" y="538">   { data: [ [Object], [Object], [Object], [Object] ],</tspan>

<tspan x="10" y="554">     errorType: 'semanticOperations3',</tspan>

<tspan x="10" y="570">     prefix: </tspan>

<tspan x="10" y="586">      [ 'swaggerJson',</tspan>

<tspan x="10" y="602">        'paths',</tspan>

<tspan x="10" y="618">        '/user/installations',</tspan>

<tspan x="10" y="634">        'get',</tspan>

<tspan x="10" y="650">        'parameters' ],</tspan>

<tspan x="10" y="666">     prefix0: 'swaggerJson["paths"]["/user/installations"]["get"]["parameters"] = [{"default":"x\</tspan>
<tspan x="10" y="682">xxxxxxx","description":"https://developer.github.com/v3/#authentication\\n\\nOAuth2 t...',</tspan>

<tspan x="10" y="698">     prefix2: '/user/installations["get"]["parameters"]',</tspan>

<tspan x="10" y="714">     schema2: 'undefined',</tspan>

<tspan x="10" y="730">     type2: 'object' },</tspan>

<tspan x="10" y="746">  statusCode: 400 }</tspan>

<tspan x="10" y="762">server starting on port 8081</tspan>

</text>
</svg>
