<svg height="1310" width="720" xmlns="http://www.w3.org/2000/svg">
<rect height="1310" fill="#555" width="720"></rect>
<text fill="#7f7" font-family="Courier New" font-size="12" xml:space="preserve">
<tspan x="10" y="26">2018-04-21 21:43:35 +0800</tspan>

<tspan x="10" y="42">fix shell-function shNpmScriptApidocRawCreate</tspan>

<tspan x="10" y="58"></tspan>

<tspan x="10" y="74">2018-04-13 20:26:06 +0800</tspan>

<tspan x="10" y="90">update.build</tspan>

<tspan x="10" y="106"></tspan>

<tspan x="10" y="122">2018-04-11 23:46:46 +0800</tspan>

<tspan x="10" y="138">update.build</tspan>

<tspan x="10" y="154"></tspan>

<tspan x="10" y="170">2018-04-11 23:18:33 +0800</tspan>

<tspan x="10" y="186">update.build</tspan>

<tspan x="10" y="202"></tspan>

<tspan x="10" y="218">2018-04-11 23:14:50 +0800</tspan>

<tspan x="10" y="234">slushy</tspan>

<tspan x="10" y="250"></tspan>

<tspan x="10" y="266">2018-04-11 10:03:30 +0800</tspan>

<tspan x="10" y="282">update.build</tspan>

<tspan x="10" y="298"></tspan>

<tspan x="10" y="314">2018-04-11 09:18:05 +0800</tspan>

<tspan x="10" y="330">update.build</tspan>

<tspan x="10" y="346"></tspan>

<tspan x="10" y="362">2018-04-04 20:50:12 +0800</tspan>

<tspan x="10" y="378">update.build</tspan>

<tspan x="10" y="394"></tspan>

<tspan x="10" y="410">2018-03-31 13:58:18 +0000</tspan>

<tspan x="10" y="426">[ci skip] [build appSwgg]</tspan>

<tspan x="10" y="442"></tspan>

<tspan x="10" y="458">2018-03-31 21:44:24 +0800</tspan>

<tspan x="10" y="474">[build appSwgg]</tspan>

<tspan x="10" y="490">2018-03-29 21:45:27 +0900</tspan>

<tspan x="10" y="506">update.build</tspan>

<tspan x="10" y="522"></tspan>

<tspan x="10" y="538">2018-03-29 15:33:32 +0900</tspan>

<tspan x="10" y="554">add.subtag.collaborators</tspan>

<tspan x="10" y="570"></tspan>

<tspan x="10" y="586">2018-03-29 15:17:12 +0900</tspan>

<tspan x="10" y="602">update.build</tspan>

<tspan x="10" y="618"></tspan>

<tspan x="10" y="634">2018-03-27 00:34:16 +0900</tspan>

<tspan x="10" y="650">[build clean]</tspan>

<tspan x="10" y="666"></tspan>

<tspan x="10" y="682">2018-03-26 23:45:27 +0900</tspan>

<tspan x="10" y="698">[npm publish] - npm publish v2018.3.25</tspan>

<tspan x="10" y="714">- update shell-function shNpmScriptApidocRawFetch to use local.ajax instead of wget</tspan>

<tspan x="10" y="730">- fix whitespace bugs in markdown description</tspan>

<tspan x="10" y="746">- enable required-flag for preview headers</tspan>

<tspan x="10" y="762">- fix ascii-diagrams in descriptions</tspan>

<tspan x="10" y="778"></tspan>

<tspan x="10" y="794">2018-02-13 09:18:57 +0700</tspan>

<tspan x="10" y="810">[npm publish] - npm publish v2018.2.12</tspan>

<tspan x="10" y="826">- update file .apidoc.raw.html and added github-teams webapi</tspan>

<tspan x="10" y="842">- programmatically create general enum</tspan>

<tspan x="10" y="858">- programmatically enum custom media types</tspan>

<tspan x="10" y="874">- revamp build-process with function swaggerJsonFromAjax</tspan>

<tspan x="10" y="890"></tspan>

<tspan x="10" y="906">2018-02-02 12:24:25 +0700</tspan>

<tspan x="10" y="922">[npm publish] - npm publish 2018.2.2</tspan>

<tspan x="10" y="938">- fix npm test for published packaged</tspan>

<tspan x="10" y="954"></tspan>

<tspan x="10" y="970">2018-02-02 11:34:29 +0700</tspan>

<tspan x="10" y="986">[npm publish] - npm publish 2018.2.1</tspan>

<tspan x="10" y="1002">- documented all github v3 api's as of 2018.1.31</tspan>

<tspan x="10" y="1018">- directly access github-api through cors instead of proxy</tspan>

<tspan x="10" y="1034">- procedurally generate assets.swgg.swagger.json in function testCase_buildReadme_default</tspan>

<tspan x="10" y="1050">- add swaggerJson property x-swgg-descriptionLineList</tspan>

<tspan x="10" y="1066">- add file .apidoc.raw.html</tspan>

<tspan x="10" y="1082">- add github-migrations-migrations web-apis</tspan>

<tspan x="10" y="1098">- add github-migrations-source-imports web-apis</tspan>

<tspan x="10" y="1114">- enable heroku-demo</tspan>

<tspan x="10" y="1130">- ignore env var $npm_package_swggAll and $npm_package_swggTags0 if package-name has -all sufix</tspan>

<tspan x="10" y="1146"></tspan>

<tspan x="10" y="1162">2018-01-20 13:40:08 +0700</tspan>

<tspan x="10" y="1178">[npm publish] - npm publish 2018.1.19</tspan>

<tspan x="10" y="1194">- add github-activity-events web-apis</tspan>

<tspan x="10" y="1210">- add github-gists web-apis</tspan>

<tspan x="10" y="1226">- add github-gists-comments web-apis</tspan>

<tspan x="10" y="1242">- add github-repositories-contents web-apis</tspan>

<tspan x="10" y="1258"></tspan>

<tspan x="10" y="1274">2014-03-26 02:31:50 +0700</tspan>

<tspan x="10" y="1290">add blank README.md</tspan>

</text>
</svg>
