<svg height="830" width="720" xmlns="http://www.w3.org/2000/svg">
<rect height="830" fill="#555" width="720"></rect>
<text fill="#7f7" font-family="Courier New" font-size="12" xml:space="preserve">
<tspan x="10" y="26"></tspan>

<tspan x="10" y="42">[MODE_BUILD=buildApp] - 2018-02-03T03:44:14.094Z - npm-testing /home/travis/build/kaizhu256/node\</tspan>
<tspan x="10" y="58">-swgg-github-all</tspan>

<tspan x="10" y="74"></tspan>

<tspan x="10" y="90"></tspan>

<tspan x="10" y="106">buildApp - merged test-report from file /home/travis/build/kaizhu256/node-swgg-github-all/tmp/bu\</tspan>
<tspan x="10" y="122">ild/test-report.json</tspan>

<tspan x="10" y="138">override assets assets.swgg.swagger.json</tspan>

<tspan x="10" y="154">&gt; server listening on http-port 38795</tspan>

<tspan x="10" y="170">[ 'application/vnd.github-commitcomment.raw+json',</tspan>

<tspan x="10" y="186">  'application/vnd.github.VERSION.object+json',</tspan>

<tspan x="10" y="202">  'application/vnd.github.VERSION.raw+json',</tspan>

<tspan x="10" y="218">  'application/vnd.github.VERSION.sha+json',</tspan>

<tspan x="10" y="234">  'application/vnd.github.jean-grey-preview+json',</tspan>

<tspan x="10" y="250">  'application/vnd.github.v3.text-match+json' ]</tspan>

<tspan x="10" y="266">&gt; server listening on http-port 54305</tspan>

<tspan x="10" y="282">[node test-case 1 of 1 passed] - testCase_buildApp_default</tspan>

<tspan x="10" y="298"></tspan>

<tspan x="10" y="314">buildApp - merged test-report from file /home/travis/build/kaizhu256/node-swgg-github-all/tmp/bu\</tspan>
<tspan x="10" y="330">ild/test-report.json</tspan>

<tspan x="10" y="346"></tspan>

<tspan x="10" y="362">-------------------------------------------------------</tspan>

<tspan x="10" y="378">| test-report - buildApidoc - node - linux v6.12.3 - 2018-02-03T03:43:15.469Z</tspan>

<tspan x="10" y="394">|   65444 ms            0 failed        1 passed      |</tspan>

<tspan x="10" y="410">-------------------------------------------------------</tspan>

<tspan x="10" y="426">| test-report - npmTest - browser - /index.default.html - Mozilla/5.0 (X11; Linux x86_64) AppleW\</tspan>
<tspan x="10" y="442">ebKit/537.36 (KHTML, like Gecko) Chrome/56.0.2924.87 Electron/1.6.15 Safari/537.36 - 2018-02-03T\</tspan>
<tspan x="10" y="458">03:42:57.941Z</tspan>

<tspan x="10" y="474">|      12 ms            0 failed        8 passed      |</tspan>

<tspan x="10" y="490">-------------------------------------------------------</tspan>

<tspan x="10" y="506">| test-report - npmTest - node - linux v6.12.3 - 2018-02-03T03:42:48.584Z</tspan>

<tspan x="10" y="522">|   23023 ms            0 failed        8 passed      |</tspan>

<tspan x="10" y="538">-------------------------------------------------------</tspan>

<tspan x="10" y="554">| test-report - npmTestPublished - browser - /index.default.html - Mozilla/5.0 (X11; Linux x86_6\</tspan>
<tspan x="10" y="570">4) AppleWebKit/537.36 (KHTML, like Gecko) Chrome/56.0.2924.87 Electron/1.6.15 Safari/537.36 - 20\</tspan>
<tspan x="10" y="586">18-02-03T03:41:44.170Z</tspan>

<tspan x="10" y="602">|      19 ms            0 failed        8 passed      |</tspan>

<tspan x="10" y="618">-------------------------------------------------------</tspan>

<tspan x="10" y="634">| test-report - npmTestPublished - node - linux v6.12.3 - 2018-02-03T03:41:37.580Z</tspan>

<tspan x="10" y="650">|   20307 ms            0 failed        8 passed      |</tspan>

<tspan x="10" y="666">-------------------------------------------------------</tspan>

<tspan x="10" y="682"></tspan>

<tspan x="10" y="698">created test-report file /home/travis/build/kaizhu256/node-swgg-github-all/tmp/build/test-report\</tspan>
<tspan x="10" y="714">.html</tspan>

<tspan x="10" y="730"></tspan>

<tspan x="10" y="746"></tspan>

<tspan x="10" y="762">buildApp - 0 failed tests</tspan>

<tspan x="10" y="778"></tspan>

<tspan x="10" y="794"></tspan>

<tspan x="10" y="810">[MODE_BUILD=buildApp] - 2018-02-03T03:44:23.297Z - EXIT_CODE - 0</tspan>

</text>
</svg>
