<svg height="654" width="720" xmlns="http://www.w3.org/2000/svg">
<rect height="654" fill="#555" width="720"></rect>
<text fill="#7f7" font-family="Courier New" font-size="12" xml:space="preserve">
<tspan x="10" y="26">2018-03-26 23:45:27 +0900</tspan>

<tspan x="10" y="42">[npm publish] - npm publish v2018.3.25</tspan>

<tspan x="10" y="58">- update shell-function shNpmScriptApidocRawFetch to use local.ajax instead of wget</tspan>

<tspan x="10" y="74">- fix whitespace bugs in markdown description</tspan>

<tspan x="10" y="90">- enable required-flag for preview headers</tspan>

<tspan x="10" y="106">- fix ascii-diagrams in descriptions</tspan>

<tspan x="10" y="122"></tspan>

<tspan x="10" y="138">2018-02-13 09:18:57 +0700</tspan>

<tspan x="10" y="154">[npm publish] - npm publish v2018.2.12</tspan>

<tspan x="10" y="170">- update file .apidoc.raw.html and added github-teams webapi</tspan>

<tspan x="10" y="186">- programmatically create general enum</tspan>

<tspan x="10" y="202">- programmatically enum custom media types</tspan>

<tspan x="10" y="218">- revamp build-process with function swaggerJsonFromAjax</tspan>

<tspan x="10" y="234"></tspan>

<tspan x="10" y="250">2018-02-02 12:24:25 +0700</tspan>

<tspan x="10" y="266">[npm publish] - npm publish 2018.2.2</tspan>

<tspan x="10" y="282">- fix npm test for published packaged</tspan>

<tspan x="10" y="298"></tspan>

<tspan x="10" y="314">2018-02-02 11:34:29 +0700</tspan>

<tspan x="10" y="330">[npm publish] - npm publish 2018.2.1</tspan>

<tspan x="10" y="346">- documented all github v3 api's as of 2018.1.31</tspan>

<tspan x="10" y="362">- directly access github-api through cors instead of proxy</tspan>

<tspan x="10" y="378">- procedurally generate assets.swgg.swagger.json in function testCase_buildReadme_default</tspan>

<tspan x="10" y="394">- add swaggerJson property x-swgg-descriptionLineList</tspan>

<tspan x="10" y="410">- add file .apidoc.raw.html</tspan>

<tspan x="10" y="426">- add github-migrations-migrations web-apis</tspan>

<tspan x="10" y="442">- add github-migrations-source-imports web-apis</tspan>

<tspan x="10" y="458">- enable heroku-demo</tspan>

<tspan x="10" y="474">- ignore env var $npm_package_swggAll and $npm_package_swggTags0 if package-name has -all sufix</tspan>

<tspan x="10" y="490"></tspan>

<tspan x="10" y="506">2018-01-20 13:40:08 +0700</tspan>

<tspan x="10" y="522">[npm publish] - npm publish 2018.1.19</tspan>

<tspan x="10" y="538">- add github-activity-events web-apis</tspan>

<tspan x="10" y="554">- add github-gists web-apis</tspan>

<tspan x="10" y="570">- add github-gists-comments web-apis</tspan>

<tspan x="10" y="586">- add github-repositories-contents web-apis</tspan>

<tspan x="10" y="602"></tspan>

<tspan x="10" y="618">2014-03-26 02:31:50 +0700</tspan>

<tspan x="10" y="634">add blank README.md</tspan>

</text>
</svg>
